<svg xmlns="http://www.w3.org/2000/svg"><defs><font id="DIN-Regular" horiz-adv-x="500"><font-face font-family="DIN-Regular" font-weight="400" panose-1="2 0 5 3 3 0 0 2 0 3" ascent="780" descent="-220" x-height="492" cap-height="712" bbox="-104 -242 1115 985" underline-thickness="51" underline-position="-185" unicode-range="U+0020-FB02"/><glyph glyph-name=".notdef" horiz-adv-x="562" d="M90 712h382V0H90v712zM421 51v610H141V51h280z"/><glyph glyph-name=".null" horiz-adv-x="0"/><glyph glyph-name="nonmarkingreturn" horiz-adv-x="249"/><glyph glyph-name="space" horiz-adv-x="249"/><glyph glyph-name="exclam" unicode="!" horiz-adv-x="316" d="M204 200h-62l-10 512h83zM130 0v84h86V0h-86z"/><glyph glyph-name="quotedbl" unicode="&quot;" horiz-adv-x="423" d="M256 542v170h79V542h-79zm-168 0v170h79V542H88z"/><glyph glyph-name="numbersign" unicode="#" horiz-adv-x="653" d="M506 432l-23-141h89v-64h-99L437 0h-74l36 227H239L204 0h-74l36 227H77v64h100l23 141h-92v66h101l34 215h75l-35-215h159l34 215h73l-34-215h87v-66h-96zm-233 0l-23-141h159l23 141H273z"/><glyph glyph-name="dollar" unicode="$" horiz-adv-x="596" d="M540 196q0-44-15.5-79t-44-61-69-41.5T322-4v-110h-60V-6q-71 3-122 25T42 88l52 52q40-40 80.5-57.5T266 63v265l-20 2q-41 4-75 20t-55 34q-55 49-55 133 0 85 53.5 138.5T262 717v89h60v-89q58-3 101-21.5t85-55.5l-49-49q-29 26-61.5 41.5T319 651V392l31-5q25-4 44-8.5t34-10.5 27.5-13.5T479 337q29-25 45-60.5t16-80.5zm-76-2q0 28-9 51t-26 38q-25 22-51.5 27T319 320V63q68 5 106.5 39t38.5 92zM266 651q-63-5-96.5-40T136 520q0-54 32-82 21-17 46.5-26t51.5-13v252z"/><glyph glyph-name="percent" unicode="%" horiz-adv-x="833" d="M769 128q0-62-38.5-98.5T634-7q-59 0-97 36.5T499 128v105q0 62 38 98.5t97 36.5q58 0 96.5-36.5T769 233V128zM335 479q0-61-38.5-97.5T200 345q-59 0-97 36.5T65 479v105q0 62 38 98.5t97 36.5q58 0 96.5-36.5T335 584V479zM280 0h-60l334 712h60zm432 231q0 40-18.5 63.5T634 318q-42 0-60-23t-18-64V130q0-41 18-64t60-23q41 0 59.5 23.5T712 130v101zM278 582q0 40-18.5 63.5T200 669q-42 0-60-23t-18-64V481q0-41 18.5-63.5T200 395t59.5 23 18.5 63v101z"/><glyph glyph-name="ampersand" unicode="&amp;" horiz-adv-x="739" d="M576 0l-64 78q-11-10-29-24.5T439 26 379 3.5 302-6q-52 0-93.5 15t-71 42-45 65T77 201q0 40 13 71t34.5 56 49.5 45.5 57 40.5q-13 16-26.5 33t-25 36-18.5 40.5-7 45.5q0 32 11.5 59t32.5 47 50 31.5 63 11.5q33 0 61.5-11.5T422 675t32.5-47.5T466 568q0-43-22.5-73.5T387 441q-10-8-20-14-8-6-17.5-11.5T334 405l182-219q11 16 18.5 32.5t12 35.5 7 42 2.5 53h72q-1-68-16-122t-50-96L671 0h-95zM273 366q-23-16-45-32t-39-35-27.5-42.5T151 203q0-32 11-58t31-45 47.5-29T301 61q40 0 81 14t87 55zm122 202q0 36-24 60.5T311 653q-37 0-59.5-23.5T229 570q0-25 14.5-49.5T293 453q5 3 11 7t12 9q7 4 15 10 25 17 44.5 37.5T395 568z"/><glyph glyph-name="quotesingle" unicode="'" horiz-adv-x="255" d="M88 542v170h79V542H88z"/><glyph glyph-name="parenleft" unicode="(" horiz-adv-x="298" d="M185-94q-24 24-41 42.5T113-8 95.5 43 92 95v522q0 26 3.5 52t17.5 51 31 43.5 41 42.5l49-49q-17-17-30.5-31T180 692q-16-32-16-81V101q0-49 16-81 10-20 23.5-34T234-45z"/><glyph glyph-name="parenright" unicode=")" horiz-adv-x="298" d="M205 95q0-26-3-52T185-8t-31-43.5T113-94L62-43l31 31q14 14 24 34 8 15 11 35t3 44v510q0 24-3 44t-11 35q-10 20-24 34l-31 31 51 51q24-24 41-42.5t31-43.5 17-51 3-52V95z"/><glyph glyph-name="asterisk" unicode="*" horiz-adv-x="474" d="M379 423l-117 71 4-137h-58l4 137-116-71-29 49 120 65-120 66 29 48 116-71-4 137h58l-4-137 117 71 28-48-120-66 120-65z"/><glyph glyph-name="plus" unicode="+" horiz-adv-x="522" d="M295 234V58h-67v176H52v67h176v174h67V301h175v-67H295z"/><glyph glyph-name="comma" unicode="," horiz-adv-x="264" d="M88-144V88h88V-65z"/><glyph glyph-name="hyphen" unicode="-" horiz-adv-x="426" d="M76 236v67h274v-67H76z"/><glyph glyph-name="period" unicode="." horiz-adv-x="270" d="M88 0v94h94V0H88z"/><glyph glyph-name="slash" unicode="/" horiz-adv-x="355" d="M71-74H0l285 860h71z"/><glyph glyph-name="zero" unicode="0" horiz-adv-x="522" d="M456 190q0-44-15-80.5t-41-62T338.5 8 261-6 183.5 8 122 47.5t-41 62T66 190v332q0 44 15 80.5t41 62 61.5 39.5 77.5 14 77.5-14 61.5-39.5 41-62 15-80.5V190zm-72 328q0 59-31.5 97.5T261 654t-91.5-38.5T138 518V194q0-59 31.5-97.5T261 58t91.5 38.5T384 194v324z"/><glyph glyph-name="one" unicode="1" horiz-adv-x="522" d="M258 0v632L125 515v82l133 115h72V0h-72z"/><glyph glyph-name="two" unicode="2" horiz-adv-x="522" d="M68 0v64l281 357q20 26 30 51t10 54q0 58-32.5 93T265 654q-25 0-47.5-7T178 624t-27-40.5-10-58.5H69q0 42 14 77.5t39.5 61 61.5 40 81 14.5q44 0 80-13.5t62-38.5 40-60.5 14-79.5q0-43-14-74.5T404 382L155 64h306V0H68z"/><glyph glyph-name="three" unicode="3" horiz-adv-x="522" d="M460 194q0-49-16.5-86.5t-44.5-63T332.5 6 251-7q-42 0-79 11t-65 34.5-45.5 59T42 181h72q2-33 14-56.5T159 86t42.5-22 49.5-7q58 0 97.5 36T388 195q0 65-33.5 101.5T248 333h-15v63h15q66 0 96.5 34.5T375 525q0 64-36 97t-88 33q-57 0-90-32t-38-87H51q3 43 19.5 77t43 57.5 61.5 36 76 12.5q43 0 79.5-14t62-39 40-61 14.5-79q0-115-96-158 109-41 109-174z"/><glyph glyph-name="four" unicode="4" horiz-adv-x="522" d="M395 113V0h-71v113H40v65l257 534h77L117 178h207v202h71V178h87v-65h-87z"/><glyph glyph-name="five" unicode="5" horiz-adv-x="522" d="M462 235q0-54-9.5-102.5T405 46q-25-25-59.5-39T263-7q-47 0-83.5 14T120 44Q97 68 85 99t-15 69h72q7-54 35.5-82.5T263 57q55 0 88 33 14 14 22 31t11.5 36 4.5 39 1 39q0 33-4.5 64t-17 55-36 39-62.5 15q-47 0-77-19t-41-51H87v374h360v-64H152V422q21 23 53.5 36t74.5 13q40 0 71-12t52-33q19-20 31-42.5t18-47.5 8-50.5 2-50.5z"/><glyph glyph-name="six" unicode="6" horiz-adv-x="522" d="M460 205q0-45-14-84t-39.5-67-62-44T263-6 181 8.5 118.5 50 79 115t-14 84q0 38 11 76.5t34 83.5l175 353h74L200 392q33 15 75 15t76-15 58-42 37.5-64 13.5-81zm-72-3q0 30-8 56t-24 45.5-39.5 31T262 346q-57 0-91-39t-34-105 34-105 91-39 91.5 39T388 202z"/><glyph glyph-name="seven" unicode="7" horiz-adv-x="522" d="M224 0h-76l247 648H147V536H76v176h395v-64z"/><glyph glyph-name="eight" unicode="8" horiz-adv-x="522" d="M471 196q0-45-16-82t-44.5-64-67-41.5T261-6 178.5 8.5t-67 41.5T67 114t-16 82q0 63 31 105t76 68q-42 24-67.5 63T65 527q0 42 14.5 77t41 60.5T183 704t78 14 78-14 62.5-39.5 41-60.5 14.5-77q0-56-25-95t-67-63q45-26 75.5-68T471 196zm-72 1q0 30-10.5 55t-29 44-44 29.5T261 336t-54.5-10.5-44-29.5-29-44-10.5-55 10.5-55 29-44 44-29.5T261 58t54.5 10.5 44 29.5 29 44 10.5 55zm-14 329q0 56-34.5 92T261 654t-89.5-36-34.5-92q0-57 34.5-92t89.5-35 89.5 35 34.5 92z"/><glyph glyph-name="nine" unicode="9" horiz-adv-x="522" d="M457 513q0-38-11-76.5T412 353L237 0h-75l160 320q-33-15-76-15-42 0-76 15t-58 42-37 64-13 81q0 45 14 84t39.5 67 62 44 81.5 16 82-14.5 62.5-41.5 39.5-65 14-84zm-72-3q0 66-34.5 105T259 654t-91-39-34-105q0-30 8-56t23.5-45.5 39-31T259 366q57 0 91.5 39T385 510z"/><glyph glyph-name="colon" unicode=":" horiz-adv-x="297" d="M115 301v94h94v-94h-94zm0-301v94h94V0h-94z"/><glyph glyph-name="semicolon" unicode=";" horiz-adv-x="297" d="M117-144V88h88V-65zm-2 445v94h94v-94h-94z"/><glyph glyph-name="less" unicode="&lt;" horiz-adv-x="522" d="M95 236v66l331 168v-77L176 269l250-124V68z"/><glyph glyph-name="equal" unicode="=" horiz-adv-x="522" d="M52 320v67h418v-67H52zm0-169v66h418v-66H52z"/><glyph glyph-name="greater" unicode="&gt;" horiz-adv-x="522" d="M95 68v77l250 124L95 393v77l331-168v-66z"/><glyph glyph-name="question" unicode="?" horiz-adv-x="497" d="M451 536q0-35-12.5-63.5T406 415l-82-118q-9-14-13.5-30t-4.5-28v-39h-72v40q0 29 7.5 50t23.5 44l81 117q14 21 23.5 40t9.5 45q0 51-32 84.5T264 654q-27 0-48.5-9.5t-36.5-26-23-38-8-45.5H76q0 38 14 71.5t39.5 58 59.5 39 75 14.5q39 0 73.5-13.5T397 667t39.5-57.5T451 536zM227 0v84h86V0h-86z"/><glyph glyph-name="at" unicode="@" horiz-adv-x="926" d="M575 450h3l17 39 58-4-48-286q-4-19-4-38 0-86 75-86 62 0 98 59 39 63 39 183 0 158-83 253-87 102-243 102-181 0-284-127-94-116-94-299 0-189 92-302 100-123 286-123 202 0 318 108l25-58Q696-242 488-242q-211 0-328 133Q45 21 45 246q0 207 113 342 121 148 330 148 178 0 284-117 104-116 104-302 0-157-63-240Q758 1 666 1 566 1 541 87l-3 1Q484 1 389 1q-64 0-102 46-41 50-41 142 0 123 67 215 69 93 165 93 69 0 97-47zm-22-69q-21 39-72 39-61 0-105-71-44-69-44-160 0-108 80-108 41 0 72 36t40 91z"/><glyph glyph-name="A" unicode="A" horiz-adv-x="611" d="M518 0l-57 161H150L93 0H12l262 712h64L599 0h-81zM307 603L173 227h266z"/><glyph glyph-name="B" unicode="B" horiz-adv-x="668" d="M592 197q0-48-15.5-85T533 50t-67-37.5T380 0H103v712h268q46 0 85-13t66.5-37.5 43-59.5 15.5-80q0-57-30-98t-75-58q51-19 83.5-62T592 197zm-76 2q0 60-38.5 95T373 329H179V68h194q66 0 104.5 35.5T516 199zm-11 322q0 32-11 55t-29.5 38-44 22.5T365 644H179V397h186q30 0 55.5 7.5t44 22.5 29.5 38.5 11 55.5z"/><glyph glyph-name="C" unicode="C" horiz-adv-x="637" d="M572 206q-9-50-30.5-89.5t-54-66.5T414 8.5 325-6q-53 0-99.5 19T143 68q-25 25-38.5 52t-20 60.5-7.5 76-1 99.5 1 99.5 7.5 76 20 60.5 38.5 52q36 36 82.5 55t99.5 19q48 0 89-14.5t73.5-41.5 54-66.5T572 506h-78q-14 66-58 105t-111 39q-35 0-67.5-13T202 600q-17-17-27-36.5t-15-47-6.5-66T152 356t1.5-94.5 6.5-66 15-47 27-36.5q23-24 55.5-37T325 62q67 0 112 39t59 105h76z"/><glyph glyph-name="D" unicode="D" horiz-adv-x="673" d="M597 364q0-37-.5-78t-6.5-80.5-20.5-75.5T527 66q-32-32-78-49T347 0H103v712h244q56 0 102-17t78-49q28-28 42.5-61.5t20.5-70 6.5-75 .5-75.5zm-76 0q0 33-.5 65.5t-4.5 62-14 55.5-28 45q-28 29-63 40.5T334 644H179V68h155q42 0 77 11.5t63 40.5q18 19 28 47.5t14 61 4.5 67.5.5 68z"/><glyph glyph-name="E" unicode="E" horiz-adv-x="600" d="M103 0v712h442v-68H179V393h312v-68H179V68h366V0H103z"/><glyph glyph-name="F" unicode="F" horiz-adv-x="580" d="M179 644V382h312v-68H179V0h-76v712h442v-68H179z"/><glyph glyph-name="G" unicode="G" horiz-adv-x="650" d="M576 260q0-62-14-105.5T515 76q-38-41-86.5-61.5T325-6q-53 0-99.5 19T143 68q-25 25-38.5 52t-20 60.5-7.5 76-1 99.5 1 99.5 7.5 76 20 60.5 38.5 52q74 74 182 74 51 0 93.5-15.5t74.5-44 52.5-67.5 28.5-86h-76q-15 68-60.5 106.5T325 650q-35 0-67.5-13.5T202 599q-17-17-27-36.5T160 516t-6.5-65.5T152 356t1.5-94.5 6.5-66 15-47 27-36.5q23-24 55.5-37T325 62q39 0 74.5 15.5T460 123q22 26 31 56.5t9 72.5v54H325v67h251V260z"/><glyph glyph-name="H" unicode="H" horiz-adv-x="696" d="M517 0v325H179V0h-76v712h76V393h338v319h76V0h-76z"/><glyph glyph-name="I" unicode="I" horiz-adv-x="282" d="M103 0v712h76V0h-76z"/><glyph glyph-name="J" unicode="J" horiz-adv-x="501" d="M408 216q0-51-16.5-92.5t-46-70-70-44T186-6Q135-6 95.5 9.5T23 58l51 51q19-20 43.5-33.5T186 62q70 0 108 42.5T332 226v486h76V216z"/><glyph glyph-name="K" unicode="K" horiz-adv-x="650" d="M546 0L329 379 179 199V0h-76v712h76V303l332 409h93L380 437 636 0h-90z"/><glyph glyph-name="L" unicode="L" horiz-adv-x="573" d="M103 0v712h76V68h364V0H103z"/><glyph glyph-name="M" unicode="M" horiz-adv-x="816" d="M637 0v541L442 112h-65L179 541V0h-76v712h76l232-505 226 505h76V0h-76z"/><glyph glyph-name="N" unicode="N" horiz-adv-x="732" d="M557 0L179 571V0h-76v712h72l378-569v569h76V0h-72z"/><glyph glyph-name="O" unicode="O" horiz-adv-x="650" d="M574 356q0-57-1-99.5t-7.5-76-20-60.5T507 68q-36-36-82-55T325-6Q217-6 143 68q-25 25-38.5 52t-20 60.5-7.5 76-1 99.5 1 99.5 7.5 76 20 60.5 38.5 52q74 74 182 74t182-74q25-25 38.5-52t20-60.5 7.5-76 1-99.5zm-76 0q0 56-1.5 94.5T490 516t-15 46.5-27 36.5q-23 24-55.5 37.5T325 650t-67.5-13.5T202 599q-17-17-27-36.5T160 516t-6.5-65.5T152 356t1.5-94.5T160 196t15-46.5 27-36.5q23-24 55.5-37.5T325 62t67.5 13.5T448 113q17 17 27 36.5t15 46.5 6.5 65.5T498 356z"/><glyph glyph-name="P" unicode="P" horiz-adv-x="630" d="M588 503q0-48-16-87t-45-66-69.5-42-89.5-15H179V0h-76v712h265q49 0 89.5-14.5t69.5-42 45-66 16-86.5zm-76 0q0 71-42 106t-109 35H179V361h182q67 0 109 35.5T512 503z"/><glyph glyph-name="Q" unicode="Q" horiz-adv-x="649" d="M557-35l-79 79Q413-6 325-6 217-6 143 68q-25 25-38.5 52t-20 60.5-7.5 76-1 99.5 1 99.5 7.5 76 20 60.5 38.5 52q74 74 182 74t182-74q25-25 38.5-52t20-60.5 7.5-76 1-99.5q0-51-1-90.5t-5.5-71-14.5-57T525 89l78-78zm-59 391q0 56-1.5 94.5T490 516t-15 46.5-27 36.5q-23 24-55.5 37.5T325 650t-67.5-13.5T202 599q-17-17-27-36.5T160 516t-6.5-65.5T152 356t1.5-94.5T160 196t15-46.5 27-36.5q23-24 55.5-37.5T325 62q56 0 101 34l-90 90 46 46 87-87q10 16 15.5 35t8.5 43.5 4 57 1 75.5z"/><glyph glyph-name="R" unicode="R" horiz-adv-x="656" d="M512 0L350 316H179V0h-76v712h273q46 0 85-13.5t67-39 43.5-62.5 15.5-83q0-78-43-127.5T432 323L601 0h-89zm-1 513q0 66-39.5 98.5T369 644H179V383h190q63 0 102.5 32t39.5 98z"/><glyph glyph-name="S" unicode="S" horiz-adv-x="588" d="M532 196q0-47-17.5-84.5t-50-63.5-78-40T286-6q-80 0-137 22T42 88l52 52q44-44 89-61t105-17q78 0 123 34.5t45 97.5q0 28-8.5 51T422 283t-35.5 21.5T329 317l-83 13q-85 14-131 54-54 48-54 133 0 45 16 82.5t45.5 63.5 71.5 40.5 95 14.5q68 0 117-18.5t95-59.5l-49-49q-33 30-71 45.5T286 652q-72 0-111-36t-39-96q0-54 32-82 17-14 42.5-24t53.5-15l78-12q25-4 44.5-8.5T421 368t27.5-13.5T472 337q60-51 60-141z"/><glyph glyph-name="T" unicode="T" horiz-adv-x="548" d="M312 644V0h-76v644H30v68h488v-68H312z"/><glyph glyph-name="U" unicode="U" horiz-adv-x="683" d="M590 235q0-53-18.5-97.5t-52-76.5-79-49.5T341-6t-99.5 17.5T163 61t-51.5 76.5T93 235v477h76V241q0-41 12-74t34.5-56T270 75t71-13 71 13 54.5 36 35 56 12.5 74v471h76V235z"/><glyph glyph-name="V" unicode="V" horiz-adv-x="546" d="M304 0h-62L8 712h80l185-576 185 576h80z"/><glyph glyph-name="W" unicode="W" horiz-adv-x="854" d="M656 0h-71L427 570 269 0h-71L16 712h81l139-574 157 574h68l157-574 139 574h81z"/><glyph glyph-name="X" unicode="X" horiz-adv-x="551" d="M448 0L275 299 101 0H15l218 365L29 712h88l158-281 158 281h88L316 365 536 0h-88z"/><glyph glyph-name="Y" unicode="Y" horiz-adv-x="514" d="M296 294V0h-76v294L8 712h82l168-341 166 341h82z"/><glyph glyph-name="Z" unicode="Z" horiz-adv-x="556" d="M57 0v72l356 572H71v68h428v-64L140 68h359V0H57z"/><glyph glyph-name="bracketleft" unicode="[" horiz-adv-x="313" d="M92-74v860h177v-64H164V-10h105v-64H92z"/><glyph glyph-name="backslash" unicode="\" horiz-adv-x="355" d="M284-74L0 783h71L355-74h-71z"/><glyph glyph-name="bracketright" unicode="]" horiz-adv-x="313" d="M44-74v62h108v736H44v62h177V-74H44z"/><glyph glyph-name="asciicircum" unicode="^" horiz-adv-x="537" d="M391 413L269 641 146 413H72l164 305h66l163-305h-74z"/><glyph glyph-name="underscore" unicode="_" horiz-adv-x="537" d="M0-165v51h537v-51H0z"/><glyph glyph-name="grave" unicode="`" d="M233 594L125 747h86l88-153h-66z"/><glyph glyph-name="a" unicode="a" horiz-adv-x="526" d="M369 0v47q-30-30-61.5-41.5T227-6q-51 0-83.5 10.5T88 39Q70 57 60.5 83.5T51 139q0 65 43.5 103.5T221 281h148v47q0 54-29 81t-97 27q-48 0-75-12.5T119 380l-49 45q33 43 73.5 58T244 498q100 0 148.5-41.5T441 334V0h-72zm0 227H231q-110 0-110-87 0-43 27-63.5T234 56q32 0 59.5 5T344 89q25 24 25 85v53z"/><glyph glyph-name="b" unicode="b" horiz-adv-x="545" d="M481 246q0-29-2.5-58t-9-56.5-18-51.5T421 37q-20-20-51-31.5T301-6q-41 0-75 13t-64 52V0H90v712h72V435q30 38 64 50.5t75 12.5q38 0 69-11.5t51-31.5q19-19 30.5-43t18-51.5 9-56.5 2.5-58zm-72 0q0 36-4 70t-17 60-37.5 42-64.5 16-64.5-16-37.5-42-17.5-60-4.5-70 4.5-70 17.5-60 37.5-42T286 58t64.5 16 37.5 42 17 60 4 70z"/><glyph glyph-name="c" unicode="c" horiz-adv-x="490" d="M443 67q-38-41-74.5-57T281-6q-47 0-86.5 15.5t-69 47-46 79T63 246t16.5 110 46 78.5 69 47.5 86.5 16q51 0 87.5-16t74.5-57l-49-46q-28 31-53 43t-60 12q-36 0-65-14t-49-42q-17-24-24.5-54.5T135 246t7.5-77.5T167 114q20-28 49-42t65-14q35 0 60 12.5t53 43.5z"/><glyph glyph-name="d" unicode="d" horiz-adv-x="545" d="M384 0v59q-30-39-64.5-52T244-6q-38 0-69 11.5T124 37q-19 19-30.5 43t-18 51.5-9 56.5-2.5 58 2.5 58 9 56.5 18 51.5 30.5 43q20 20 51 31.5t69 11.5q41 0 75-12.5t64-50.5v277h72V0h-71zm-1 246q0 36-4 70t-17 60-37.5 42-64.5 16-64.5-16-37.5-42-17.5-60-4.5-70 4.5-70 17.5-60 37.5-42T260 58t64.5 16 37.5 42 17 60 4 70z"/><glyph glyph-name="e" unicode="e" horiz-adv-x="530" d="M135 227q0-81 37-125.5T280 57q43 0 71.5 13.5T409 113l49-43q-19-19-37.5-33T381 13.5 334.5-1 278-6q-49 0-88.5 15T122 55t-43.5 78.5T63 246q0 120 54 186t148 66q96 0 149-64t53-174v-33H135zm260 54q-1 15-2 26t-2.5 20-4 17.5T380 363q-14 34-45 54t-70 20-70-20-45-54q-8-20-11-36t-4-46h260z"/><glyph glyph-name="f" unicode="f" horiz-adv-x="314" d="M178 434V0h-72v434H43v55h63v93q0 27 7.5 51t23.5 42 39 28.5 55 10.5h52v-62h-39q-35 0-50.5-19T178 580v-91h105v-55H178z"/><glyph glyph-name="g" unicode="g" horiz-adv-x="543" d="M453-15q0-46-14-84.5T399-166t-64.5-44-86.5-16q-28 0-50 3.5T156.5-211t-38 20.5T81-160l47 46q13-12 25.5-21t26-15.5T209-160t37-3q36 0 61.5 12t42 32 24 47.5T381-12v77q-30-38-64-51T243 1q-38 0-68.5 12T124 45q-37 37-48.5 91T64 250t11.5 114 48.5 91q20 20 51 31.5t69 11.5q41 0 74.5-12.5T382 434v58h71V-15zm-72 265q0 34-4 67.5t-17 59-37 41.5-64 16-64.5-16-37.5-41.5-17-59-4-67.5q0-35 4-68t17-58.5T194.5 82 259 66t64 16 37 41.5 17 58.5 4 68z"/><glyph glyph-name="h" unicode="h" horiz-adv-x="562" d="M405 0v304q0 65-32 97.5T285 434t-89.5-33-33.5-97V0H90v712h72V438q53 60 138 60 84 0 130.5-49T477 316V0h-72z"/><glyph glyph-name="i" unicode="i" horiz-adv-x="253" d="M90 0v492h72V0H90zm-4 632v81h81v-81H86z"/><glyph glyph-name="j" unicode="j" horiz-adv-x="253" d="M162-89q0-28-7.5-52t-23-42-39-28T37-221h-52v63h39q38 0 52 18t14 54v575h72V-89zM86 632v81h81v-81H86z"/><glyph glyph-name="k" unicode="k" horiz-adv-x="536" d="M414 0L258 252l-96-110V0H90v712h72V236l222 256h90L307 304 503 0h-89z"/><glyph glyph-name="l" unicode="l" horiz-adv-x="297" d="M213 0q-65 0-95 37.5T88 131v581h72V134q0-36 14-54t52-18h39V0h-52z"/><glyph glyph-name="m" unicode="m" horiz-adv-x="879" d="M722 0v303q0 66-32.5 98.5T601 434q-54 0-88.5-32T478 311V0h-72v303q0 66-32.5 98.5T285 434t-89.5-33-33.5-98V0H90v492h72v-54q26 30 61.5 45t77.5 15q51 0 89.5-20.5T452 416q58 82 162 82 40 0 72-12t55-34q53-51 53-137V0h-72z"/><glyph glyph-name="n" unicode="n" horiz-adv-x="562" d="M405 0v303q0 66-32.5 98.5T284 434t-89-33-33-98V0H90v492h72v-54q26 30 61 45t77 15q80 0 126-46 51-50 51-137V0h-72z"/><glyph glyph-name="o" unicode="o" horiz-adv-x="530" d="M466 246q0-57-11.5-107.5T406 50q-26-26-61-41T265-6 185 9t-61 41q-19 19-30.5 41.5t-18 47-9 51.5-2.5 56q0 28 2.5 55.5t9 52 18 47T124 442q26 26 61 41t80 15 80-15 61-41q37-38 48.5-88.5T466 246zm-72 0q0 21-1 42t-5 41-12 37.5-21 31.5q-36 36-90 36-53 0-89-36-14-14-21.5-31.5t-12-37.5-5.5-41-1-42 1-42 5.5-41 12-38T176 94q36-36 89-36 54 0 90 36 13 13 21 31t12 38 5 41 1 42z"/><glyph glyph-name="p" unicode="p" horiz-adv-x="545" d="M481 246q0-29-2.5-58t-9-56.5-18-51.5T421 37q-20-20-51-31.5T301-6q-41 0-75 13t-64 51v-278H90v712h72v-58q30 39 64 51.5t75 12.5q38 0 69-11.5t51-31.5q19-19 30.5-43t18-51.5 9-56.5 2.5-58zm-72 0q0 36-4 70t-17 60-37.5 42-64.5 16-64.5-16-37.5-42-17.5-60-4.5-70 4.5-70 17.5-60 37.5-42T286 58t64.5 16 37.5 42 17 60 4 70z"/><glyph glyph-name="q" unicode="q" horiz-adv-x="545" d="M383-220V58q-30-38-64-51T244-6q-38 0-69 11.5T124 37q-19 19-30.5 43t-18 51.5-9 56.5-2.5 58 2.5 58 9 56.5 18 51.5 30.5 43q20 20 51 31.5t69 11.5q41 0 75.5-12.5T384 434v58h71v-712h-72zm0 466q0 36-4 70t-17 60-37.5 42-64.5 16-64.5-16-37.5-42-17.5-60-4.5-70 4.5-70 17.5-60 37.5-42T260 58t64.5 16 37.5 42 17 60 4 70z"/><glyph glyph-name="r" unicode="r" horiz-adv-x="421" d="M365 398q-20 20-38 28t-47 8q-27 0-49-10t-37-28-23.5-42-8.5-52V0H90v492h72v-60q20 31 57.5 48.5T300 498q35 0 63.5-10t54.5-36z"/><glyph glyph-name="s" unicode="s" horiz-adv-x="496" d="M445 144q0-36-14.5-63.5t-41-47-63-29.5T245-6q-63 0-112 16T43 65l48 48q29-31 68-44t85-13q61 0 96 21.5t35 65.5q0 32-19.5 50T293 215l-81 7q-72 6-109.5 38.5T65 354q0 34 13.5 60.5t37.5 45 57.5 28.5 72.5 10q53 0 98.5-13t78.5-40l-47-47q-26 20-59.5 29.5T245 437q-54 0-82-21.5T135 356q0-32 19.5-50t66.5-22l79-7q32-3 59-11t46-24 29.5-40 10.5-58z"/><glyph glyph-name="t" unicode="t" horiz-adv-x="332" d="M228 0q-32 0-55.5 10.5t-39 28.5T110 81t-8 51v302H40v55h62v154h72V489h105v-55H174V134q0-34 16-53t51-19h38V0h-51z"/><glyph glyph-name="u" unicode="u" horiz-adv-x="562" d="M401 0v55q-26-30-61.5-45.5T262-6q-81 0-127 46-26 26-38 60.5T85 178v314h72V189q0-66 32-98.5T277 58t89.5 33 33.5 98v303h72V0h-71z"/><glyph glyph-name="v" unicode="v" horiz-adv-x="447" d="M255 0h-64L11 492h78L223 97l135 395h78z"/><glyph glyph-name="w" unicode="w" horiz-adv-x="724" d="M558 0h-67L362 382 234 0h-67L11 492h78L202 97l129 395h62L523 97l112 395h78z"/><glyph glyph-name="x" unicode="x" horiz-adv-x="478" d="M358 0L240 191 120 0H33l167 251L40 492h87l113-182 111 182h87L278 251 445 0h-87z"/><glyph glyph-name="y" unicode="y" horiz-adv-x="447" d="M212-119q-14-39-35-58-20-19-45-26.5T81-211H50v64h22q37 0 53 13.5T153-86l35 96L11 492h78L224 97l134 395h78z"/><glyph glyph-name="z" unicode="z" horiz-adv-x="459" d="M50 0v62l274 366H65v64h342v-61L132 64h275V0H50z"/><glyph glyph-name="braceleft" unicode="{" horiz-adv-x="354" d="M268-74q-38 0-61.5 7T167-44q-17 17-23.5 38.5T137 55v191q0 42-18 60-8 8-19.5 13T74 324H48v64h26q14 0 25.5 5t19.5 13q18 18 18 60v191q0 39 6.5 60.5T167 756q16 16 39.5 23t61.5 7h37v-64h-23q-26 0-38.5-2.5T223 709t-11-23-3-42V456q0-43-17-64.5T146 356q29-14 46-35.5t17-64.5V68q0-27 3-42t11-23 20.5-10.5T282-10h23v-64h-37z"/><glyph glyph-name="bar" unicode="|" horiz-adv-x="326" d="M127-74v860h72V-74h-72z"/><glyph glyph-name="braceright" unicode="}" horiz-adv-x="354" d="M280 324q-14 0-25.5-5T235 306q-18-18-18-60V55q0-39-6.5-60.5T187-44q-16-16-39.5-23T86-74H48v64h24q26 0 38 2.5T130 3t11.5 23 3.5 42v188q0 43 17 64.5t46 35.5q-29 14-46 35.5T145 456v188q0 27-3.5 42T130 709t-20 10.5-38 2.5H48v64h38q38 0 61.5-7t39.5-23q17-17 23.5-38.5T217 657V466q0-42 18-60 8-8 19.5-13t25.5-5h25v-64h-25z"/><glyph glyph-name="asciitilde" unicode="~" horiz-adv-x="539" d="M490 278q-21-21-37.5-34.5t-31-21-29-10T361 210q-26 0-51.5 9T255 241q-21 10-39.5 17t-38.5 7q-11 0-19.5-1.5t-18-6.5-20.5-13.5T93 220l-44 45q21 21 37.5 34t31 20.5 29 10.5 31.5 3q26 0 51-9t54-22q21-10 39.5-17t38.5-7q10 0 19 1.5t18.5 6.5 20.5 13.5 26 23.5z"/><glyph glyph-name="Zcaron" horiz-adv-x="556" d="M57 0v72l356 572H71v68h428v-64L140 68h359V0H57zm261 781h-68L125 934h69l90-105 90 105h69z"/><glyph glyph-name="Zcaron" unicode="Ž" horiz-adv-x="556" d="M57 0v72l356 572H71v68h428v-64L140 68h359V0H57zm261 781h-68L125 934h69l90-105 90 105h69z"/><glyph glyph-name="zcaron" horiz-adv-x="459" d="M50 0v62l274 366H65v64h342v-61L132 64h275V0H50zm220 594h-68L77 747h69l90-105 90 105h69z"/><glyph glyph-name="zcaron" unicode="ž" horiz-adv-x="459" d="M50 0v62l274 366H65v64h342v-61L132 64h275V0H50zm220 594h-68L77 747h69l90-105 90 105h69z"/><glyph glyph-name="uni00A0" horiz-adv-x="249"/><glyph glyph-name="exclamdown" unicode="¡" horiz-adv-x="316" d="M101-220l10 512h62l11-512h-83zm-2 628v84h86v-84H99z"/><glyph glyph-name="cent" unicode="¢" horiz-adv-x="498" d="M448 189q-35-38-67.5-54.5T303 115V0h-59v117q-83 12-132 76T63 366t49 173 132 76v97h59v-95q45-3 77.5-19.5T448 543l-49-46q-25 28-47.5 40.5T299 552V180q30 2 52.5 14.5T399 235zM248 550q-49-9-80-52-17-24-25-54.5t-8-77.5 8-77.5 25-54.5q31-43 80-52v368z"/><glyph glyph-name="sterling" unicode="£" horiz-adv-x="548" d="M110 0v330H47v54h63v112q0 51 16.5 92.5t46 70 70.5 44 90 15.5q51 0 90.5-15.5T496 654l-52-51q-10 10-20 18.5t-23 15-29.5 10T333 650q-70 0-108-42.5T187 486V384h146v-54H187V68h309V0H110z"/><glyph glyph-name="currency" unicode="¤" horiz-adv-x="660" d="M536 19l-75 74q-27-20-60-32t-71-12-71.5 12T198 93l-74-74-46 46 74 74q-20 27-32 60.5T108 271t12 71.5 32 60.5l-74 73 46 46 74-73q27 20 60.5 31.5T330 492t71-11.5 60-31.5l75 73 46-46-74-73q20-27 32-60.5t12-71.5-12-71.5-32-60.5l74-74zm-51 252q0 32-12 60.5T440 381t-49.5 33-60.5 12-60.5-12-49.5-33-33.5-49.5T174 271t12.5-60.5T220 161t49.5-33.5T330 115t60.5 12.5T440 161t33 49.5 12 60.5z"/><glyph glyph-name="yen" unicode="¥" horiz-adv-x="514" d="M349 401h100v-54H322l-26-53v-52h153v-55H296V0h-77v187H65v55h154v52l-26 53H65v54h100L8 712h82l168-341 167 341h81z"/><glyph glyph-name="brokenbar" unicode="¦" horiz-adv-x="335" d="M127 436v350h72V436h-72zm0-510v350h72V-74h-72z"/><glyph glyph-name="section" unicode="§" horiz-adv-x="557" d="M470 254q0-31-9-56.5T437.5 151t-33-36T366 90q43-16 70-52.5T463-54q0-39-14.5-71t-39-54.5-58-34.5-72.5-12q-37 0-70.5 10t-59 30.5T108-135 90-65h73q5-47 35-71t81-24 81 27 30 78q0 35-23 62.5T302 47l-78 22q-66 19-101.5 66.5T87 252q0 31 9 56.5t23.5 46.5 33.5 36 39 25q-43 20-68 51.5T99 554q0 36 13.5 66.5t37.5 52 57 33.5 72 12 71.5-11 56.5-31 38-49.5 16-65.5h-72q-4 50-33 71.5T279 654q-51 0-79.5-25T171 555q0-40 23-62.5t61-33.5l78-22q66-19 101.5-67T470 254zm-73-1q0 29-6.5 51T365 345q-36 36-86 36-53 0-86-36-17-19-25-40t-8-52q0-32 9.5-54t23.5-38q33-36 86-36t86 36q15 17 23.5 38.5T397 253z"/><glyph glyph-name="dieresis" unicode="¨" d="M320 602v89h72v-89h-72zm-212 0v89h72v-89h-72z"/><glyph glyph-name="copyright" unicode="©" horiz-adv-x="881" d="M802 356q0-75-28.5-141T696 100 581 22.5 440-6 299 22.5 184 100t-77.5 115T78 356t28.5 141T184 612t115 77.5T440 718t141-28.5T696 612t77.5-115T802 356zm-58 0q0 63-24 119t-65 98-96.5 66.5T440 664t-118-24.5-96.5-66.5-65-98T137 356t23.5-119 65-98T322 72.5 440 48t118.5 24.5T655 139t65 98 24 119zM576 205q-29-26-59-39t-72-13q-44 0-77 15.5T312.5 211t-34 64-11.5 81 11.5 81.5 34 64.5 55.5 42.5 77 15.5q42 0 71-13t60-40l-36-36q-25 22-46 30.5t-49 8.5q-34 0-57.5-12.5T350 464t-20.5-49-6.5-59q0-32 6.5-59.5T350 248t37.5-33 57.5-12q28 0 49 8t46 30z"/><glyph glyph-name="ordfeminine" unicode="ª" horiz-adv-x="449" d="M307 319v36q-23-23-48-32t-63-9q-41 0-66 8.5T86 350q-30 32-30 79 0 52 34.5 83T191 543h115v36q0 42-21.5 63T209 663q-37 0-58.5-9.5T111 619l-41 37q27 35 59.5 47.5T210 716q79 0 117-34t38-98V319h-58zm-1 179H199q-84 0-84-67 0-33 20.5-49t65.5-16q25 0 46.5 4t39.5 21q19 18 19 67v40z"/><glyph glyph-name="guillemotleft" unicode="«" horiz-adv-x="554" d="M40 268l210 210v-90L130 268l120-121V58zm226 0l210 210v-90L355 268l121-121V58z"/><glyph glyph-name="logicalnot" unicode="¬" horiz-adv-x="522" d="M404 103v137H51v67h420V103h-67z"/><glyph glyph-name="uni00AD" unicode="­" horiz-adv-x="426" d="M76 236v67h274v-67H76z"/><glyph glyph-name="registered" unicode="®" horiz-adv-x="881" d="M802 356q0-75-28.5-141T696 100 581 22.5 440-6 299 22.5 184 100t-77.5 115T78 356t28.5 141T184 612t115 77.5T440 718t141-28.5T696 612t77.5-115T802 356zm-57 0q0 64-24 120t-65.5 98-97 66.5T440 665t-118.5-24.5T225 574t-65-98-24-120 24-120 65-98 96.5-66.5T440 47t118.5 24.5 97 66.5 65.5 98 24 120zM528 158l-91 162h-60V158h-55v397h135q26 0 48.5-9t39.5-25 27-38 10-47q0-44-24-71t-61-38l95-169h-64zm-2 278q0 30-21 50t-54 20h-74V367h74q33 0 54 19.5t21 49.5z"/><glyph glyph-name="macron" unicode="¯" d="M99 614v57h302v-57H99z"/><glyph glyph-name="degree" unicode="°" horiz-adv-x="463" d="M396 557q0-34-13-64t-35-52-52-35-64-13-64 13-52.5 35T80 493t-13 64 13 64 35.5 52 52.5 35 64 13 64-13 52-35 35-52 13-64zm-61 0q0 22-8 41.5t-22 34-33 22.5-41 8-41-8-32.5-22.5-21.5-34-8-41.5q0-23 8-42t22-33.5 33-22.5 41-8 41 8 32.5 22.5T327 515t8 42z"/><glyph glyph-name="plusminus" unicode="±" horiz-adv-x="522" d="M295 289V112h-67v177H52v67h176v175h67V356h175v-67H295zM52 0v67h418V0H52z"/><glyph glyph-name="twosuperior" unicode="²" horiz-adv-x="342" d="M48 285v52l165 202q12 15 17.5 28t5.5 30q0 30-17 48.5T171 664q-26 0-45.5-15T106 597H48q0 54 34.5 86.5T171 716t88.5-32 34.5-87q0-28-9.5-48T255 505L117 337h177v-52H48z"/><glyph glyph-name="threesuperior" unicode="³" horiz-adv-x="356" d="M308 405q0-31-10-54.5t-27.5-39-41-23.5-50.5-8q-26 0-49 7t-41 21.5-29 37T48 399h58q2-35 23.5-51t49.5-16q31 0 51.5 19t20.5 54q0 34-18.5 53.5T176 478h-9v50h9q35 0 51.5 18.5T244 596q0 34-19.5 51T178 664q-29 0-47-17t-20-46H54q3 54 38 84.5t86 30.5q54 0 88.5-32.5T301 597q0-35-14-57.5T247 505q29-12 45-36t16-64z"/><glyph glyph-name="acute" unicode="´" d="M267 594h-66l88 153h86z"/><glyph glyph-name="mu1" unicode="µ" horiz-adv-x="561" d="M399 0v55Q346-6 261-6q-66 0-106 37v-251H83v712h72V189q0-66 32.5-98.5T276 58t89.5 33 33.5 98v303h72V0h-72z"/><glyph glyph-name="paragraph" unicode="¶" horiz-adv-x="603" d="M428-220v864H311v-864h-72v546q-45 0-81.5 16t-62 43T56 446.5 42 518q0 40 14.5 75.5T99 655t68.5 41.5T259 712h241v-932h-72z"/><glyph glyph-name="periodcentered" unicode="·" horiz-adv-x="270" d="M88 223v94h94v-94H88z"/><glyph glyph-name="cedilla" unicode="¸" d="M254-216h-79l71 149h67z"/><glyph glyph-name="onesuperior" unicode="¹" horiz-adv-x="261" d="M126 285v363l-83-73v66l83 71h57V285h-57z"/><glyph glyph-name="ordmasculine" unicode="º" horiz-adv-x="455" d="M387 515q0-46-9-85.5T339 359q-20-20-48-32t-64-12-64 12-48 32q-30 31-39 70.5T67 515q0 45 9 85t39 71q20 20 48 32.5t64 12.5 64-12.5 48-32.5q30-31 39-71t9-85zm-59 0q0 32-5 65t-26 54q-28 28-70 28t-70-28q-21-21-25.5-54t-4.5-65 4.5-64.5T157 397q14-14 32-21.5t38-7.5 38 7.5 32 21.5q21 21 26 53.5t5 64.5z"/><glyph glyph-name="guillemotright" unicode="»" horiz-adv-x="554" d="M304 58v89l120 121-120 120v90l210-210zM78 58v89l121 121L78 388v90l210-210z"/><glyph glyph-name="onequarter" unicode="¼" horiz-adv-x="777" d="M690 64V0h-56v64H462v53l151 310h62L525 117h109v105h56V117h47V64h-47zM233 0h-60l333 712h60zM126 285v363l-83-73v66l83 71h57V285h-57z"/><glyph glyph-name="onehalf" unicode="½" horiz-adv-x="790" d="M496 0v52l165 202q12 15 17.5 28t5.5 30q0 30-17 48.5T619 379q-26 0-45.5-15T554 312h-58q0 54 34.5 86.5T619 431t88.5-32 34.5-87q0-28-9.5-48T703 220L566 52h176V0H496zM221 0h-60l333 712h60zm-95 285v363l-83-73v66l83 71h57V285h-57z"/><glyph glyph-name="threequarters" unicode="¾" horiz-adv-x="822" d="M308 405q0-31-10-54.5t-27.5-39-41-23.5-50.5-8q-26 0-49 7t-41 21.5-29 37T48 399h58q2-35 23.5-51t49.5-16q31 0 51.5 19t20.5 54q0 34-18.5 53.5T176 478h-9v50h9q35 0 51.5 18.5T244 596q0 34-19.5 51T178 664q-29 0-47-17t-20-46H54q3 54 38 84.5t86 30.5q54 0 88.5-32.5T301 597q0-35-14-57.5T247 505q29-12 45-36t16-64zM735 64V0h-56v64H507v53l151 310h62L569 117h110v105h56V117h47V64h-47zM285 0h-60l334 712h60z"/><glyph glyph-name="questiondown" unicode="¿" horiz-adv-x="497" d="M421-43q0-38-14-71.5T368-173t-59.5-39-74.5-14q-39 0-73.5 13.5t-60 38-40 58T46-43q0 35 13 63t33 57l82 118q9 14 13.5 30t4.5 28v40h72v-41q0-29-8-50t-24-44L151 42q-14-21-23.5-40T118-43q0-51 32.5-84.5T234-161q27 0 48 9.5t36 26T341-88t8 45h72zM185 408v84h85v-84h-85z"/><glyph glyph-name="Agrave" unicode="À" horiz-adv-x="611" d="M518 0l-57 161H150L93 0H12l262 712h64L599 0h-81zM307 603L173 227h266zm-21 178L178 934h86l88-153h-66z"/><glyph glyph-name="Aacute" unicode="Á" horiz-adv-x="611" d="M518 0l-57 161H150L93 0H12l262 712h64L599 0h-81zM307 603L173 227h266zm13 178h-66l88 153h86z"/><glyph glyph-name="Acircumflex" unicode="Â" horiz-adv-x="611" d="M518 0l-57 161H150L93 0H12l262 712h64L599 0h-81zM307 603L173 227h266zm86 178l-90 104-90-104h-69l125 153h68l125-153h-69z"/><glyph glyph-name="Atilde" unicode="Ã" horiz-adv-x="611" d="M518 0l-57 161H150L93 0H12l262 712h64L599 0h-81zM307 603L173 227h266zm153 243q-34-34-56-42.5t-39-8.5q-21 0-37 6t-34 17q-14 8-27.5 14.5T238 839q-12 0-24.5-5T179 807l-37 36q17 17 30.5 27t24.5 15.5 21 7 19 1.5q22 0 37-6.5t34-17.5q16-10 28.5-15t27.5-5q11 0 24 5t35 27z"/><glyph glyph-name="Adieresis" unicode="Ä" horiz-adv-x="611" d="M518 0l-57 161H150L93 0H12l262 712h64L599 0h-81zM307 603L173 227h266zM161 789v89h72v-89h-72zm211 0v89h72v-89h-72z"/><glyph glyph-name="Aring" unicode="Å" horiz-adv-x="611" d="M518 0l-57 161H150L93 0H12l262 712h64L599 0h-81zM307 603L173 227h266zm113 264q0-24-9.5-46T385 783t-37.5-25.5T302 748t-45.5 9.5T219 783t-25.5 38-9.5 46 9.5 45.5T219 950t37.5 25.5T302 985t45.5-9 37.5-25 25.5-37.5T420 867zm-49 0q0 29-20 48.5T302 935t-49-19.5-20-48.5 20-49 49-20 49 20 20 49z"/><glyph glyph-name="AE" unicode="Æ" horiz-adv-x="922" d="M426 0v169H179L91 0H8l376 712h483v-68H501V391h312v-68H501V68h366V0H426zm0 644L212 235h214v409z"/><glyph glyph-name="Ccedilla" unicode="Ç" horiz-adv-x="637" d="M572 206q-9-50-30.5-89.5t-54-66.5T414 8.5 325-6q-53 0-99.5 19T143 68q-25 25-38.5 52t-20 60.5-7.5 76-1 99.5 1 99.5 7.5 76 20 60.5 38.5 52q36 36 82.5 55t99.5 19q48 0 89-14.5t73.5-41.5 54-66.5T572 506h-78q-14 66-58 105t-111 39q-35 0-67.5-13T202 600q-17-17-27-36.5t-15-47-6.5-66T152 356t1.5-94.5 6.5-66 15-47 27-36.5q23-24 55.5-37T325 62q67 0 112 39t59 105h76zM311-216h-79l71 149h67z"/><glyph glyph-name="Egrave" unicode="È" horiz-adv-x="600" d="M103 0v712h442v-68H179V393h312v-68H179V68h366V0H103zm194 781L189 934h86l88-153h-66z"/><glyph glyph-name="Eacute" unicode="É" horiz-adv-x="600" d="M103 0v712h442v-68H179V393h312v-68H179V68h366V0H103zm228 781h-66l88 153h86z"/><glyph glyph-name="Ecircumflex" unicode="Ê" horiz-adv-x="600" d="M103 0v712h442v-68H179V393h312v-68H179V68h366V0H103zm301 781l-90 104-90-104h-69l125 153h68l125-153h-69z"/><glyph glyph-name="Edieresis" unicode="Ë" horiz-adv-x="600" d="M103 0v712h442v-68H179V393h312v-68H179V68h366V0H103zm69 789v89h72v-89h-72zm211 0v89h72v-89h-72z"/><glyph glyph-name="Igrave" unicode="Ì" horiz-adv-x="282" d="M103 0v712h76V0h-76zm12 781L7 934h86l88-153h-66z"/><glyph glyph-name="Iacute" unicode="Í" horiz-adv-x="282" d="M103 0v712h76V0h-76zm67 781h-66l88 153h86z"/><glyph glyph-name="Icircumflex" unicode="Î" horiz-adv-x="282" d="M103 0v712h76V0h-76zm128 781l-90 104-90-104h-69l125 153h68l125-153h-69z"/><glyph glyph-name="Idieresis" unicode="Ï" horiz-adv-x="282" d="M103 0v712h76V0h-76zM2 789v89h72v-89H2zm211 0v89h72v-89h-72z"/><glyph glyph-name="Eth" unicode="Ð" horiz-adv-x="687" d="M611 356q0-61-1.5-100t-6-66-13.5-46-23-39q-32-45-84.5-75T356 0H117v330H39v59h78v323h245q135 0 205-107 15-24 24-44t13.5-46.5T610 451t1-95zm-76-4q0 50-1 84.5t-4.5 59-10.5 42-20 35.5q-29 39-64.5 55.5T348 645H194V389h161v-59H194V67h154q106 0 156 74 11 16 17 32t9 38.5 4 55.5 1 85z"/><glyph glyph-name="Ntilde" unicode="Ñ" horiz-adv-x="732" d="M557 0L179 571V0h-76v712h72l378-569v569h76V0h-72zm-34 846q-34-34-56-42.5t-39-8.5q-21 0-37 6t-34 17q-14 8-27.5 14.5T301 839q-12 0-24.5-5T242 807l-37 36q17 17 30.5 27t24.5 15.5 21 7 19 1.5q22 0 37-6.5t34-17.5q16-10 28.5-15t27.5-5q11 0 24 5t35 27z"/><glyph glyph-name="Ograve" unicode="Ò" horiz-adv-x="650" d="M574 356q0-57-1-99.5t-7.5-76-20-60.5T507 68q-36-36-82-55T325-6Q217-6 143 68q-25 25-38.5 52t-20 60.5-7.5 76-1 99.5 1 99.5 7.5 76 20 60.5 38.5 52q74 74 182 74t182-74q25-25 38.5-52t20-60.5 7.5-76 1-99.5zm-76 0q0 56-1.5 94.5T490 516t-15 46.5-27 36.5q-23 24-55.5 37.5T325 650t-67.5-13.5T202 599q-17-17-27-36.5T160 516t-6.5-65.5T152 356t1.5-94.5T160 196t15-46.5 27-36.5q23-24 55.5-37.5T325 62t67.5 13.5T448 113q17 17 27 36.5t15 46.5 6.5 65.5T498 356zM308 781L200 934h86l88-153h-66z"/><glyph glyph-name="Oacute" unicode="Ó" horiz-adv-x="650" d="M574 356q0-57-1-99.5t-7.5-76-20-60.5T507 68q-36-36-82-55T325-6Q217-6 143 68q-25 25-38.5 52t-20 60.5-7.5 76-1 99.5 1 99.5 7.5 76 20 60.5 38.5 52q74 74 182 74t182-74q25-25 38.5-52t20-60.5 7.5-76 1-99.5zm-76 0q0 56-1.5 94.5T490 516t-15 46.5-27 36.5q-23 24-55.5 37.5T325 650t-67.5-13.5T202 599q-17-17-27-36.5T160 516t-6.5-65.5T152 356t1.5-94.5T160 196t15-46.5 27-36.5q23-24 55.5-37.5T325 62t67.5 13.5T448 113q17 17 27 36.5t15 46.5 6.5 65.5T498 356zM342 781h-66l88 153h86z"/><glyph glyph-name="Ocircumflex" unicode="Ô" horiz-adv-x="650" d="M574 356q0-57-1-99.5t-7.5-76-20-60.5T507 68q-36-36-82-55T325-6Q217-6 143 68q-25 25-38.5 52t-20 60.5-7.5 76-1 99.5 1 99.5 7.5 76 20 60.5 38.5 52q74 74 182 74t182-74q25-25 38.5-52t20-60.5 7.5-76 1-99.5zm-76 0q0 56-1.5 94.5T490 516t-15 46.5-27 36.5q-23 24-55.5 37.5T325 650t-67.5-13.5T202 599q-17-17-27-36.5T160 516t-6.5-65.5T152 356t1.5-94.5T160 196t15-46.5 27-36.5q23-24 55.5-37.5T325 62t67.5 13.5T448 113q17 17 27 36.5t15 46.5 6.5 65.5T498 356zm-83 425l-90 104-90-104h-69l125 153h68l125-153h-69z"/><glyph glyph-name="Otilde" unicode="Õ" horiz-adv-x="650" d="M574 356q0-57-1-99.5t-7.5-76-20-60.5T507 68q-36-36-82-55T325-6Q217-6 143 68q-25 25-38.5 52t-20 60.5-7.5 76-1 99.5 1 99.5 7.5 76 20 60.5 38.5 52q74 74 182 74t182-74q25-25 38.5-52t20-60.5 7.5-76 1-99.5zm-76 0q0 56-1.5 94.5T490 516t-15 46.5-27 36.5q-23 24-55.5 37.5T325 650t-67.5-13.5T202 599q-17-17-27-36.5T160 516t-6.5-65.5T152 356t1.5-94.5T160 196t15-46.5 27-36.5q23-24 55.5-37.5T325 62t67.5 13.5T448 113q17 17 27 36.5t15 46.5 6.5 65.5T498 356zm-16 490q-34-34-56-42.5t-39-8.5q-21 0-37 6t-34 17q-14 8-27.5 14.5T260 839q-12 0-24.5-5T201 807l-37 36q17 17 30.5 27t24.5 15.5 21 7 19 1.5q22 0 37-6.5t34-17.5q16-10 28.5-15t27.5-5q11 0 24 5t35 27z"/><glyph glyph-name="Odieresis" unicode="Ö" horiz-adv-x="650" d="M574 356q0-57-1-99.5t-7.5-76-20-60.5T507 68q-36-36-82-55T325-6Q217-6 143 68q-25 25-38.5 52t-20 60.5-7.5 76-1 99.5 1 99.5 7.5 76 20 60.5 38.5 52q74 74 182 74t182-74q25-25 38.5-52t20-60.5 7.5-76 1-99.5zm-76 0q0 56-1.5 94.5T490 516t-15 46.5-27 36.5q-23 24-55.5 37.5T325 650t-67.5-13.5T202 599q-17-17-27-36.5T160 516t-6.5-65.5T152 356t1.5-94.5T160 196t15-46.5 27-36.5q23-24 55.5-37.5T325 62t67.5 13.5T448 113q17 17 27 36.5t15 46.5 6.5 65.5T498 356zM183 789v89h72v-89h-72zm212 0v89h72v-89h-72z"/><glyph glyph-name="multiply" unicode="×" horiz-adv-x="522" d="M412 74L261 225 110 74l-45 45 151 151L65 421l45 45 151-152 151 152 45-45-152-151 152-151z"/><glyph glyph-name="Oslash" unicode="Ø" horiz-adv-x="652" d="M574 356q0-57-1-99.5t-7.5-76-20-60.5T507 68q-36-36-82-55T325-6q-70 0-126 32l-33-70h-65l50 104-8 8q-25 25-38.5 52t-20 60.5-7.5 76-1 99.5 1 99.5 7.5 76 20 60.5 38.5 52q74 74 182 74 70 0 125-31l34 69h65l-50-104 8-8q25-25 38.5-52t20-60.5 7.5-76 1-99.5zM421 621q-21 14-45.5 21.5T325 650q-35 0-67.5-13.5T202 599q-17-17-27-36.5T160 516t-6.5-65.5T152 356q0-49 1-84t5-61.5 10.5-45T187 131zm76-265q0 49-1 84t-4.5 61.5-10 45T463 581L229 91q21-14 45.5-21.5T325 62q35 0 67.5 13.5T448 113q17 17 26.5 36.5T489 196t6.5 65.5T497 356z"/><glyph glyph-name="Ugrave" unicode="Ù" horiz-adv-x="683" d="M590 235q0-53-18.5-97.5t-52-76.5-79-49.5T341-6t-99.5 17.5T163 61t-51.5 76.5T93 235v477h76V241q0-41 12-74t34.5-56T270 75t71-13 71 13 54.5 36 35 56 12.5 74v471h76V235zM324 781L216 934h86l88-153h-66z"/><glyph glyph-name="Uacute" unicode="Ú" horiz-adv-x="683" d="M590 235q0-53-18.5-97.5t-52-76.5-79-49.5T341-6t-99.5 17.5T163 61t-51.5 76.5T93 235v477h76V241q0-41 12-74t34.5-56T270 75t71-13 71 13 54.5 36 35 56 12.5 74v471h76V235zM358 781h-66l88 153h86z"/><glyph glyph-name="Ucircumflex" unicode="Û" horiz-adv-x="683" d="M590 235q0-53-18.5-97.5t-52-76.5-79-49.5T341-6t-99.5 17.5T163 61t-51.5 76.5T93 235v477h76V241q0-41 12-74t34.5-56T270 75t71-13 71 13 54.5 36 35 56 12.5 74v471h76V235zM431 781l-90 104-90-104h-69l125 153h68l125-153h-69z"/><glyph glyph-name="Udieresis" unicode="Ü" horiz-adv-x="683" d="M590 235q0-53-18.5-97.5t-52-76.5-79-49.5T341-6t-99.5 17.5T163 61t-51.5 76.5T93 235v477h76V241q0-41 12-74t34.5-56T270 75t71-13 71 13 54.5 36 35 56 12.5 74v471h76V235zM199 789v89h72v-89h-72zm212 0v89h72v-89h-72z"/><glyph glyph-name="Yacute" unicode="Ý" horiz-adv-x="514" d="M296 294V0h-76v294L8 712h82l168-341 166 341h82zm-21 487h-66l88 153h86z"/><glyph glyph-name="Thorn" unicode="Þ" horiz-adv-x="642" d="M588 359q0-48-16-86.5t-45-66-69.5-42T368 150H179V0h-76v712h76V569h189q49 0 89.5-15t69.5-42 45-66 16-87zm-76 0q0 71-42 106t-109 35H179V218h182q67 0 109 35t42 106z"/><glyph glyph-name="germandbls" unicode="ß" horiz-adv-x="556" d="M484 141q0-69-39-105-20-19-44-27.5T342 0h-54v62h40q22 0 34 4.5T387 82q25 20 25 67v169q0 41-21 62t-59 21h-44v60h36q39 0 63.5 24.5T412 552q0 22-8.5 41.5T381 627q-30 29-94 29-67 0-95.5-37.5T163 521V0H90v524q0 94 54 144.5T291 719q40 0 75-10t61-30 41.5-51.5T484 553q0-42-16.5-70.5T421 434q18-10 30-21t19.5-25 10.5-32 3-42V141z"/><glyph glyph-name="agrave" unicode="à" horiz-adv-x="526" d="M369 0v47q-30-30-61.5-41.5T227-6q-51 0-83.5 10.5T88 39Q70 57 60.5 83.5T51 139q0 65 43.5 103.5T221 281h148v47q0 54-29 81t-97 27q-48 0-75-12.5T119 380l-49 45q33 43 73.5 58T244 498q100 0 148.5-41.5T441 334V0h-72zm0 227H231q-110 0-110-87 0-43 27-63.5T234 56q32 0 59.5 5T344 89q25 24 25 85v53zM236 594L128 747h86l88-153h-66z"/><glyph glyph-name="aacute" unicode="á" horiz-adv-x="526" d="M369 0v47q-30-30-61.5-41.5T227-6q-51 0-83.5 10.5T88 39Q70 57 60.5 83.5T51 139q0 65 43.5 103.5T221 281h148v47q0 54-29 81t-97 27q-48 0-75-12.5T119 380l-49 45q33 43 73.5 58T244 498q100 0 148.5-41.5T441 334V0h-72zm0 227H231q-110 0-110-87 0-43 27-63.5T234 56q32 0 59.5 5T344 89q25 24 25 85v53zm-99 367h-66l88 153h86z"/><glyph glyph-name="acircumflex" unicode="â" horiz-adv-x="526" d="M369 0v47q-30-30-61.5-41.5T227-6q-51 0-83.5 10.5T88 39Q70 57 60.5 83.5T51 139q0 65 43.5 103.5T221 281h148v47q0 54-29 81t-97 27q-48 0-75-12.5T119 380l-49 45q33 43 73.5 58T244 498q100 0 148.5-41.5T441 334V0h-72zm0 227H231q-110 0-110-87 0-43 27-63.5T234 56q32 0 59.5 5T344 89q25 24 25 85v53zm-26 367l-90 104-90-104H94l125 153h68l125-153h-69z"/><glyph glyph-name="atilde" unicode="ã" horiz-adv-x="526" d="M369 0v47q-30-30-61.5-41.5T227-6q-51 0-83.5 10.5T88 39Q70 57 60.5 83.5T51 139q0 65 43.5 103.5T221 281h148v47q0 54-29 81t-97 27q-48 0-75-12.5T119 380l-49 45q33 43 73.5 58T244 498q100 0 148.5-41.5T441 334V0h-72zm0 227H231q-110 0-110-87 0-43 27-63.5T234 56q32 0 59.5 5T344 89q25 24 25 85v53zm41 432q-34-34-56-42.5t-39-8.5q-21 0-37 6t-34 17q-14 8-27.5 14.5T188 652q-12 0-24.5-5T129 620l-37 36q17 17 30.5 27t24.5 15.5 21 7 19 1.5q22 0 37-6.5t34-17.5q16-10 28.5-15t27.5-5q11 0 24 5t35 27z"/><glyph glyph-name="adieresis" unicode="ä" horiz-adv-x="526" d="M369 0v47q-30-30-61.5-41.5T227-6q-51 0-83.5 10.5T88 39Q70 57 60.5 83.5T51 139q0 65 43.5 103.5T221 281h148v47q0 54-29 81t-97 27q-48 0-75-12.5T119 380l-49 45q33 43 73.5 58T244 498q100 0 148.5-41.5T441 334V0h-72zm0 227H231q-110 0-110-87 0-43 27-63.5T234 56q32 0 59.5 5T344 89q25 24 25 85v53zM111 602v89h72v-89h-72zm211 0v89h72v-89h-72z"/><glyph glyph-name="aring" unicode="å" horiz-adv-x="526" d="M369 0v47q-30-30-61.5-41.5T227-6q-51 0-83.5 10.5T88 39Q70 57 60.5 83.5T51 139q0 65 43.5 103.5T221 281h148v47q0 54-29 81t-97 27q-48 0-75-12.5T119 380l-49 45q33 43 73.5 58T244 498q100 0 148.5-41.5T441 334V0h-72zm0 227H231q-110 0-110-87 0-43 27-63.5T234 56q32 0 59.5 5T344 89q25 24 25 85v53zm1 460q0-24-9.5-46T335 603t-37.5-25.5T252 568t-45.5 9.5T169 603t-25.5 38-9.5 46 9.5 45.5T169 770t37.5 25.5T252 805t45.5-9 37.5-25 25.5-37.5T370 687zm-49 0q0 29-20 48.5T252 755t-49-19.5-20-48.5 20-49 49-20 49 20 20 49z"/><glyph glyph-name="ae" unicode="æ" horiz-adv-x="835" d="M440 227q0-81 37.5-125.5T586 57q43 0 71 13.5t57 42.5l50-43q-19-19-38-33t-40.5-23.5-47-14.5T582-6q-58 0-103 20.5T407 79q-34-48-75-66.5T227-6q-51 0-83.5 10.5T88 39Q70 57 60.5 83.5T51 139q0 65 43.5 103.5T221 281h148v47q0 54-29 81t-97 27q-48 0-75-12.5T119 380l-49 45q33 43 73.5 58T244 498q132 0 173-77 52 77 154 77 96 0 149-64t53-174v-33H440zm-71 0H231q-110 0-110-87 0-43 27-63.5T234 56q32 0 59.5 5T344 89q25 24 25 85v53zm332 54q-1 15-2 26t-2.5 20-4 17.5T686 363q-14 34-45 54t-70 20-70-20-45-54q-8-20-11-36t-5-46h261z"/><glyph glyph-name="ccedilla" unicode="ç" horiz-adv-x="490" d="M443 67q-38-41-74.5-57T281-6q-47 0-86.5 15.5t-69 47-46 79T63 246t16.5 110 46 78.5 69 47.5 86.5 16q51 0 87.5-16t74.5-57l-49-46q-28 31-53 43t-60 12q-36 0-65-14t-49-42q-17-24-24.5-54.5T135 246t7.5-77.5T167 114q20-28 49-42t65-14q35 0 60 12.5t53 43.5zM254-216h-79l71 149h67z"/><glyph glyph-name="egrave" unicode="è" horiz-adv-x="530" d="M135 227q0-81 37-125.5T280 57q43 0 71.5 13.5T409 113l49-43q-19-19-37.5-33T381 13.5 334.5-1 278-6q-49 0-88.5 15T122 55t-43.5 78.5T63 246q0 120 54 186t148 66q96 0 149-64t53-174v-33H135zm260 54q-1 15-2 26t-2.5 20-4 17.5T380 363q-14 34-45 54t-70 20-70-20-45-54q-8-20-11-36t-4-46h260zM251 594L143 747h86l88-153h-66z"/><glyph glyph-name="eacute" unicode="é" horiz-adv-x="530" d="M135 227q0-81 37-125.5T280 57q43 0 71.5 13.5T409 113l49-43q-19-19-37.5-33T381 13.5 334.5-1 278-6q-49 0-88.5 15T122 55t-43.5 78.5T63 246q0 120 54 186t148 66q96 0 149-64t53-174v-33H135zm260 54q-1 15-2 26t-2.5 20-4 17.5T380 363q-14 34-45 54t-70 20-70-20-45-54q-8-20-11-36t-4-46h260zM285 594h-66l88 153h86z"/><glyph glyph-name="ecircumflex" unicode="ê" horiz-adv-x="530" d="M135 227q0-81 37-125.5T280 57q43 0 71.5 13.5T409 113l49-43q-19-19-37.5-33T381 13.5 334.5-1 278-6q-49 0-88.5 15T122 55t-43.5 78.5T63 246q0 120 54 186t148 66q96 0 149-64t53-174v-33H135zm260 54q-1 15-2 26t-2.5 20-4 17.5T380 363q-14 34-45 54t-70 20-70-20-45-54q-8-20-11-36t-4-46h260zm-37 313l-90 104-90-104h-69l125 153h68l125-153h-69z"/><glyph glyph-name="edieresis" unicode="ë" horiz-adv-x="530" d="M135 227q0-81 37-125.5T280 57q43 0 71.5 13.5T409 113l49-43q-19-19-37.5-33T381 13.5 334.5-1 278-6q-49 0-88.5 15T122 55t-43.5 78.5T63 246q0 120 54 186t148 66q96 0 149-64t53-174v-33H135zm260 54q-1 15-2 26t-2.5 20-4 17.5T380 363q-14 34-45 54t-70 20-70-20-45-54q-8-20-11-36t-4-46h260zM126 602v89h72v-89h-72zm212 0v89h72v-89h-72z"/><glyph glyph-name="igrave" unicode="ì" horiz-adv-x="253" d="M90 0v492h72V0H90zm14 594L-4 747h86l88-153h-66z"/><glyph glyph-name="iacute" unicode="í" horiz-adv-x="253" d="M90 0v492h72V0H90zm67 594H91l88 153h86z"/><glyph glyph-name="icircumflex" unicode="î" horiz-adv-x="253" d="M90 0v492h72V0H90zm130 594l-90 104-90-104h-69L96 747h68l125-153h-69z"/><glyph glyph-name="idieresis" unicode="ï" horiz-adv-x="253" d="M90 0v492h72V0H90zM-15 602v89h72v-89h-72zm211 0v89h72v-89h-72z"/><glyph glyph-name="eth" unicode="ð" horiz-adv-x="530" d="M465 244q0-57-11-107t-49-88q-25-26-60-40.5T265-6 185 8.5 125 49q-38 38-48.5 88T66 244t10.5 107 48.5 88q46 47 122 52 19 1 38.5-.5T322 481l-58 99H148v52h88l-47 82h75l47-82h82v-52h-54l63-111q20-35 32.5-62t19-52.5 9-51.5 2.5-59zm-72 0q0 21-1 42t-5 40.5-12 37-21 31.5q-36 36-89 36-52 0-88-36-14-14-21.5-31.5t-11.5-37-5-40.5-1-42q0-42 6-82.5T177 94q36-36 88-36 53 0 89 36 27 27 33 67.5t6 82.5z"/><glyph glyph-name="ntilde" unicode="ñ" horiz-adv-x="562" d="M405 0v303q0 66-32.5 98.5T284 434t-89-33-33-98V0H90v492h72v-54q26 30 61 45t77 15q80 0 126-46 51-50 51-137V0h-72zm37 659q-34-34-56-42.5t-39-8.5q-21 0-37 6t-34 17q-14 8-27.5 14.5T220 652q-12 0-24.5-5T161 620l-37 36q17 17 30.5 27t24.5 15.5 21 7 19 1.5q22 0 37-6.5t34-17.5q16-10 28.5-15t27.5-5q11 0 24 5t35 27z"/><glyph glyph-name="ograve" unicode="ò" horiz-adv-x="530" d="M466 246q0-57-11.5-107.5T406 50q-26-26-61-41T265-6 185 9t-61 41q-19 19-30.5 41.5t-18 47-9 51.5-2.5 56q0 28 2.5 55.5t9 52 18 47T124 442q26 26 61 41t80 15 80-15 61-41q37-38 48.5-88.5T466 246zm-72 0q0 21-1 42t-5 41-12 37.5-21 31.5q-36 36-90 36-53 0-89-36-14-14-21.5-31.5t-12-37.5-5.5-41-1-42 1-42 5.5-41 12-38T176 94q36-36 89-36 54 0 90 36 13 13 21 31t12 38 5 41 1 42zM238 594L130 747h86l88-153h-66z"/><glyph glyph-name="oacute" unicode="ó" horiz-adv-x="530" d="M466 246q0-57-11.5-107.5T406 50q-26-26-61-41T265-6 185 9t-61 41q-19 19-30.5 41.5t-18 47-9 51.5-2.5 56q0 28 2.5 55.5t9 52 18 47T124 442q26 26 61 41t80 15 80-15 61-41q37-38 48.5-88.5T466 246zm-72 0q0 21-1 42t-5 41-12 37.5-21 31.5q-36 36-90 36-53 0-89-36-14-14-21.5-31.5t-12-37.5-5.5-41-1-42 1-42 5.5-41 12-38T176 94q36-36 89-36 54 0 90 36 13 13 21 31t12 38 5 41 1 42zM282 594h-66l88 153h86z"/><glyph glyph-name="ocircumflex" unicode="ô" horiz-adv-x="530" d="M466 246q0-57-11.5-107.5T406 50q-26-26-61-41T265-6 185 9t-61 41q-19 19-30.5 41.5t-18 47-9 51.5-2.5 56q0 28 2.5 55.5t9 52 18 47T124 442q26 26 61 41t80 15 80-15 61-41q37-38 48.5-88.5T466 246zm-72 0q0 21-1 42t-5 41-12 37.5-21 31.5q-36 36-90 36-53 0-89-36-14-14-21.5-31.5t-12-37.5-5.5-41-1-42 1-42 5.5-41 12-38T176 94q36-36 89-36 54 0 90 36 13 13 21 31t12 38 5 41 1 42zm-39 348l-90 104-90-104h-69l125 153h68l125-153h-69z"/><glyph glyph-name="otilde" unicode="õ" horiz-adv-x="530" d="M466 246q0-57-11.5-107.5T406 50q-26-26-61-41T265-6 185 9t-61 41q-19 19-30.5 41.5t-18 47-9 51.5-2.5 56q0 28 2.5 55.5t9 52 18 47T124 442q26 26 61 41t80 15 80-15 61-41q37-38 48.5-88.5T466 246zm-72 0q0 21-1 42t-5 41-12 37.5-21 31.5q-36 36-90 36-53 0-89-36-14-14-21.5-31.5t-12-37.5-5.5-41-1-42 1-42 5.5-41 12-38T176 94q36-36 89-36 54 0 90 36 13 13 21 31t12 38 5 41 1 42zm28 413q-34-34-56-42.5t-39-8.5q-21 0-37 6t-34 17q-14 8-27.5 14.5T200 652q-12 0-24.5-5T141 620l-37 36q17 17 30.5 27t24.5 15.5 21 7 19 1.5q22 0 37-6.5t34-17.5q16-10 28.5-15t27.5-5q11 0 24 5t35 27z"/><glyph glyph-name="odieresis" unicode="ö" horiz-adv-x="530" d="M466 246q0-57-11.5-107.5T406 50q-26-26-61-41T265-6 185 9t-61 41q-19 19-30.5 41.5t-18 47-9 51.5-2.5 56q0 28 2.5 55.5t9 52 18 47T124 442q26 26 61 41t80 15 80-15 61-41q37-38 48.5-88.5T466 246zm-72 0q0 21-1 42t-5 41-12 37.5-21 31.5q-36 36-90 36-53 0-89-36-14-14-21.5-31.5t-12-37.5-5.5-41-1-42 1-42 5.5-41 12-38T176 94q36-36 89-36 54 0 90 36 13 13 21 31t12 38 5 41 1 42zM123 602v89h72v-89h-72zm212 0v89h72v-89h-72z"/><glyph glyph-name="divide" unicode="÷" horiz-adv-x="522" d="M51 236v67h420v-67H51zM218 49v86h86V49h-86zm0 355v86h86v-86h-86z"/><glyph glyph-name="oslash" unicode="ø" horiz-adv-x="530" d="M466 246q0-57-11.5-107.5T406 50q-26-26-61-41T265-6q-31 0-57 7t-48 20l-38-65H65l57 96q-36 38-47 87.5T64 246q0 28 2.5 55.5t9 52 18 47T124 442q26 26 61 41t80 15q31 0 57-7t48-20l39 65h56l-57-96q36-38 47-87.5T466 246zm-72 0q0 35-3.5 70.5T370 379L193 80q31-22 72-22 54 0 90 36 13 13 21 31t12 38 5 41 1 42zm-57 167q-30 21-72 21-53 0-89-36-14-14-21.5-31.5t-12-37.5-5.5-41-1-42q0-35 4-70.5t21-62.5z"/><glyph glyph-name="ugrave" unicode="ù" horiz-adv-x="562" d="M401 0v55q-26-30-61.5-45.5T262-6q-81 0-127 46-26 26-38 60.5T85 178v314h72V189q0-66 32-98.5T277 58t89.5 33 33.5 98v303h72V0h-71zM261 594L153 747h86l88-153h-66z"/><glyph glyph-name="uacute" unicode="ú" horiz-adv-x="562" d="M401 0v55q-26-30-61.5-45.5T262-6q-81 0-127 46-26 26-38 60.5T85 178v314h72V189q0-66 32-98.5T277 58t89.5 33 33.5 98v303h72V0h-71zM295 594h-66l88 153h86z"/><glyph glyph-name="ucircumflex" unicode="û" horiz-adv-x="562" d="M401 0v55q-26-30-61.5-45.5T262-6q-81 0-127 46-26 26-38 60.5T85 178v314h72V189q0-66 32-98.5T277 58t89.5 33 33.5 98v303h72V0h-71zm-33 594l-90 104-90-104h-69l125 153h68l125-153h-69z"/><glyph glyph-name="udieresis" unicode="ü" horiz-adv-x="562" d="M401 0v55q-26-30-61.5-45.5T262-6q-81 0-127 46-26 26-38 60.5T85 178v314h72V189q0-66 32-98.5T277 58t89.5 33 33.5 98v303h72V0h-71zM136 602v89h72v-89h-72zm212 0v89h72v-89h-72z"/><glyph glyph-name="yacute" unicode="ý" horiz-adv-x="447" d="M212-119q-14-39-35-58-20-19-45-26.5T81-211H50v64h22q37 0 53 13.5T153-86l35 96L11 492h78L224 97l134 395h78zm29 713h-66l88 153h86z"/><glyph glyph-name="thorn" unicode="þ" horiz-adv-x="546" d="M481 246q0-29-2.5-58t-9-56.5-18-51.5T421 37q-20-20-51-31.5T301-6q-41 0-75 13t-64 51v-278H90v932h72V435q30 38 64 50.5t75 12.5q38 0 69-11.5t51-31.5q19-19 30.5-43t18-51.5 9-56.5 2.5-58zm-72 0q0 36-4 70t-17 60-37.5 42-64.5 16-64.5-16-37.5-42-17.5-60-4.5-70 4.5-70 17.5-60 37.5-42T286 58t64.5 16 37.5 42 17 60 4 70z"/><glyph glyph-name="ydieresis" unicode="ÿ" horiz-adv-x="447" d="M212-119q-14-39-35-58-20-19-45-26.5T81-211H50v64h22q37 0 53 13.5T153-86l35 96L11 492h78L224 97l134 395h78zM82 602v89h72v-89H82zm211 0v89h72v-89h-72z"/><glyph glyph-name="dotlessi" unicode="ı" horiz-adv-x="253" d="M90 0v492h72V0H90z"/><glyph glyph-name="Lslash" unicode="Ł" horiz-adv-x="582" d="M112 0v289l-73-46v67l73 46v356h77V404l154 98v-66l-154-98V68h363V0H112z"/><glyph glyph-name="lslash" unicode="ł" horiz-adv-x="315" d="M226 0q-65 0-95.5 37.5T100 131v211l-63-39v62l63 39v308h72V448l81 50v-62l-81-50V134q0-36 14-54t52-18h40V0h-52z"/><glyph glyph-name="OE" unicode="Œ" horiz-adv-x="989" d="M497 0v74q-33-41-78.5-60.5T324-6Q217-6 143 68q-25 25-38.5 51.5t-20 60.5-7.5 76.5-1 99.5 1 99.5 7.5 76.5 20 60.5T143 644q74 74 181 74 53 0 96.5-19.5T497 638v74h434v-67H573q0-59 .5-127.5T574 391h304v-64H574q0-60-.5-130T573 67h360V0H497zm0 356q0 56-1.5 94.5T489 516t-14.5 46.5T448 599q-23 24-55.5 37.5T325 650t-67.5-13.5T202 599q-17-17-27-36.5T160 516t-6.5-65.5T152 356t1.5-94.5T160 196t15-46.5 27-36.5q23-24 55.5-37.5T325 62t67.5 13.5T448 113q17 17 26.5 36.5T489 196t6.5 65.5T497 356z"/><glyph glyph-name="oe" unicode="œ" horiz-adv-x="861" d="M466 227q0-81 37-125.5T611 57q43 0 71.5 13.5T740 113l49-43q-19-19-37.5-33T712 13.5 665.5-1 609-6Q485-6 432 89q-23-45-67-70T265-6q-45 0-80 15t-61 41q-19 19-30.5 41.5t-18 47-9 51.5-2.5 56q0 28 2.5 55.5t9 52 18 47T124 442q26 26 61 41t80 15q56 0 100.5-25t67.5-70q51 95 163 95 96 0 149-64t53-174v-33H466zm-72 19q0 21-1 42t-5 41-12 37.5-21 31.5q-36 36-90 36-53 0-89-36-14-14-21.5-31.5t-12-37.5-5.5-41-1-42 1-42 5.5-41 12-38T176 94q36-36 89-36 54 0 90 36 13 13 21 31t12 38 5 41 1 42zm333 35q-2 30-5 46t-11 36q-14 34-45 54t-70 20-70-20-45-54q-8-20-11-36t-4-46h261z"/><glyph glyph-name="Scaron" unicode="Š" horiz-adv-x="588" d="M532 196q0-47-17.5-84.5t-50-63.5-78-40T286-6q-80 0-137 22T42 88l52 52q44-44 89-61t105-17q78 0 123 34.5t45 97.5q0 28-8.5 51T422 283t-35.5 21.5T329 317l-83 13q-85 14-131 54-54 48-54 133 0 45 16 82.5t45.5 63.5 71.5 40.5 95 14.5q68 0 117-18.5t95-59.5l-49-49q-33 30-71 45.5T286 652q-72 0-111-36t-39-96q0-54 32-82 17-14 42.5-24t53.5-15l78-12q25-4 44.5-8.5T421 368t27.5-13.5T472 337q60-51 60-141zM323 781h-68L130 934h69l90-105 90 105h69z"/><glyph glyph-name="scaron" unicode="š" horiz-adv-x="496" d="M445 144q0-36-14.5-63.5t-41-47-63-29.5T245-6q-63 0-112 16T43 65l48 48q29-31 68-44t85-13q61 0 96 21.5t35 65.5q0 32-19.5 50T293 215l-81 7q-72 6-109.5 38.5T65 354q0 34 13.5 60.5t37.5 45 57.5 28.5 72.5 10q53 0 98.5-13t78.5-40l-47-47q-26 20-59.5 29.5T245 437q-54 0-82-21.5T135 356q0-32 19.5-50t66.5-22l79-7q32-3 59-11t46-24 29.5-40 10.5-58zM280 594h-68L87 747h69l90-105 90 105h69z"/><glyph glyph-name="Ydieresis" unicode="Ÿ" horiz-adv-x="514" d="M296 294V0h-76v294L8 712h82l168-341 166 341h82zM116 789v89h72v-89h-72zm211 0v89h72v-89h-72z"/><glyph glyph-name="florin" unicode="ƒ" horiz-adv-x="403" d="M323 652q-35 0-54-19t-25-53l-34-196h105v-54H200l-97-550H31l97 550H30v54h108l34 198q5 27 17 51t31 42 44 28.5 57 10.5h52v-62h-50z"/><glyph glyph-name="circumflex" unicode="ˆ" d="M340 594l-90 104-90-104H91l125 153h68l125-153h-69z"/><glyph glyph-name="caron" unicode="ˇ" d="M284 594h-68L91 747h69l90-105 90 105h69z"/><glyph glyph-name="breve" unicode="˘" d="M415 727q-12-139-163-139-155 0-167 139h58q5-39 34-60.5t75-21.5 74.5 21.5T360 727h55z"/><glyph glyph-name="dotaccent" unicode="˙" d="M210 634v74h80v-74h-80z"/><glyph glyph-name="ring" unicode="˚" d="M368 687q0-24-9.5-46T333 603t-37.5-25.5T250 568t-45.5 9.5T167 603t-25.5 38-9.5 46 9.5 45.5T167 770t37.5 25.5T250 805t45.5-9 37.5-25 25.5-37.5T368 687zm-49 0q0 29-20 48.5T250 755t-49-19.5-20-48.5 20-49 49-20 49 20 20 49z"/><glyph glyph-name="ogonek" unicode="˛" d="M310-216h-79l71 149h67z"/><glyph glyph-name="tilde" unicode="˜" d="M407 659q-34-34-56-42.5t-39-8.5q-21 0-37 6t-34 17q-14 8-27.5 14.5T185 652q-12 0-24.5-5T126 620l-37 36q17 17 30.5 27t24.5 15.5 21 7 19 1.5q22 0 37-6.5t34-17.5q16-10 28.5-15t27.5-5q11 0 24 5t35 27z"/><glyph glyph-name="hungarumlaut" unicode="˝" d="M176 594h-66l89 153h85zm162 0h-65l89 153h85z"/><glyph glyph-name="endash" unicode="–" horiz-adv-x="522" d="M52 236v67h418v-67H52z"/><glyph glyph-name="emdash" unicode="—" horiz-adv-x="914" d="M76 236v68h762v-68H76z"/><glyph glyph-name="quoteleft" unicode="‘" horiz-adv-x="263" d="M88 628v84l87 79V628H88z"/><glyph glyph-name="quoteright" unicode="’" horiz-adv-x="263" d="M88 549v163h87v-84z"/><glyph glyph-name="quotesinglbase" unicode="‚" horiz-adv-x="263" d="M88-79V84h87V0z"/><glyph glyph-name="quotedblleft" unicode="“" horiz-adv-x="434" d="M258 628v84l88 79V628h-88zm-170 0v84l87 79V628H88z"/><glyph glyph-name="quotedblright" unicode="”" horiz-adv-x="434" d="M258 549v163h88v-84zm-170 0v163h87v-84z"/><glyph glyph-name="quotedblbase" unicode="„" horiz-adv-x="434" d="M258-79V84h88V0zM88-79V84h87V0z"/><glyph glyph-name="dagger" unicode="†" horiz-adv-x="605" d="M337 445V0h-72v445H74v64h191v203h72V509h194v-64H337z"/><glyph glyph-name="daggerdbl" unicode="‡" horiz-adv-x="605" d="M337-16v-204h-72v204H74v64h191v397H74v64h191v203h72V509h194v-64H337V48h194v-64H337z"/><glyph glyph-name="bullet" unicode="•" horiz-adv-x="532" d="M429 334q0-34-13-63.5T381 219t-51.5-35-63.5-13-63.5 13-51.5 35-35 51.5-13 63.5 13 63.5 35 51.5 51.5 35 63.5 13 63.5-13 51.5-35 35-51.5 13-63.5z"/><glyph glyph-name="ellipsis" unicode="…" horiz-adv-x="757" d="M577 0v92h92V0h-92zM88 0v92h92V0H88zm244 0v92h92V0h-92z"/><glyph glyph-name="perthousand" unicode="‰" horiz-adv-x="1179" d="M1115 128q0-62-38.5-98.5T980-7q-59 0-97 36.5T845 128v105q0 62 38 98.5t97 36.5q58 0 96.5-36.5T1115 233V128zm-346 0q0-62-38.5-98.5T634-7q-59 0-97 36.5T499 128v105q0 62 38 98.5t97 36.5q58 0 96.5-36.5T769 233V128zM335 479q0-61-38.5-97.5T200 345q-59 0-97 36.5T65 479v105q0 62 38 98.5t97 36.5q58 0 96.5-36.5T335 584V479zM280 0h-60l334 712h60zm432 231q0 40-18.5 63.5T634 318q-42 0-60-23t-18-64V130q0-41 18-64t60-23q41 0 59.5 23.5T712 130v101zm346 0q0 40-18.5 63.5T980 318q-42 0-60-23t-18-64V130q0-41 18-64t60-23q41 0 59.5 23.5T1058 130v101zM278 582q0 40-18.5 63.5T200 669q-42 0-60-23t-18-64V481q0-41 18.5-63.5T200 395t59.5 23 18.5 63v101z"/><glyph glyph-name="guilsinglleft" unicode="‹" horiz-adv-x="328" d="M40 268l210 210v-90L130 268l120-121V58z"/><glyph glyph-name="guilsinglright" unicode="›" horiz-adv-x="328" d="M78 58v89l121 121L78 388v90l210-210z"/><glyph glyph-name="fraction" unicode="⁄" horiz-adv-x="185" d="M-44 0h-60l333 712h60z"/><glyph glyph-name="Euro" unicode="€" horiz-adv-x="678" d="M608 206q-9-50-31-89.5T523 50 450 8.5 361-6Q254-6 180 68q-19 19-31 39t-19.5 43-11 50-4.5 60H47v50h66v98H47v49h67q1 31 5 57.5t11.5 49T150 606t30 38q74 74 181 74 48 0 89-14.5t73.5-41.5 54-66.5T608 506h-77q-14 66-58.5 105T361 650q-73 0-123-50-12-13-20.5-26.5t-14-30.5-8.5-38-4-48h219v-49H189v-98h221v-50H191q1-29 4-51t8-39 13.5-31 21.5-27q50-50 123-50 67 0 112.5 39T533 206h75z"/><glyph glyph-name="trademark" unicode="™" horiz-adv-x="839" d="M724 285v308L622 391h-56L464 593V285h-58v427h58l130-259 130 259h57V285h-57zM212 659V285h-58v374H36v53h295v-53H212z"/><glyph glyph-name="minus" unicode="−" horiz-adv-x="522" d="M52 236v67h418v-67H52z"/><glyph glyph-name="fi" unicode="ﬁ" horiz-adv-x="562" d="M177 434V0h-72v434H42v55h63v93q0 27 7.5 51t23.5 42 39 28.5 55 10.5h52v-62h-39q-35 0-50.5-19T177 580v-91h105v-55H177zM399 0v489h72V0h-72zm-5 639v74h82v-74h-82z"/><glyph glyph-name="fl" unicode="ﬂ" horiz-adv-x="602" d="M177 434V0h-72v434H42v55h63v93q0 27 7.5 51t23.5 42 39 28.5 55 10.5h52v-62h-39q-35 0-50.5-19T177 580v-91h105v-55H177zM521 0q-65 0-95.5 37.5T395 131v581h72V134q0-36 14-54t52-18h40V0h-52z"/><glyph glyph-name="mu" horiz-adv-x="561" d="M399 0v55Q346-6 261-6q-66 0-106 37v-251H83v712h72V189q0-66 32.5-98.5T276 58t89.5 33 33.5 98v303h72V0h-72z"/><glyph glyph-name="acute.lc" horiz-adv-x="530" d="M282 594h-66l88 153h86z"/><glyph glyph-name="diedot.lc" horiz-adv-x="530" d="M123 602v89h72v-89h-72z"/><glyph glyph-name="breve.uc" d="M415 934q-12-139-163-139-155 0-167 139h58q5-39 34-60.5t75-21.5 74.5 21.5T360 934h55z"/><glyph glyph-name="tilde.uc" horiz-adv-x="650" d="M482 846q-34-34-56-42.5t-39-8.5q-21 0-37 6t-34 17q-14 8-27.5 14.5T260 839q-12 0-24.5-5T201 807l-37 36q17 17 30.5 27t24.5 15.5 21 7 19 1.5q22 0 37-6.5t34-17.5q16-10 28.5-15t27.5-5q11 0 24 5t35 27z"/><glyph glyph-name="commaaccent" horiz-adv-x="264" d="M31-216l71 149h66l-59-149H31z"/><glyph glyph-name="caron.uc" horiz-adv-x="556" d="M318 781h-68L125 934h69l90-105 90 105h69z"/><glyph glyph-name="macron.uc" d="M99 789v57h302v-57H99z"/><glyph glyph-name="dotaccent.uc" d="M210 789v74h80v-74h-80z"/><glyph glyph-name="grave.uc" horiz-adv-x="650" d="M308 781L200 934h86l88-153h-66z"/><glyph glyph-name="hungarumlaut.uc" d="M176 781h-66l89 153h85zm162 0h-65l89 153h85z"/><glyph glyph-name="dieresis.uc" horiz-adv-x="650" d="M395 789v89h72v-89h-72zm-212 0v89h72v-89h-72z"/><glyph glyph-name="diedot.uc" horiz-adv-x="650" d="M183 789v89h72v-89h-72z"/><glyph glyph-name="ring.uc" d="M368 867q0-24-9.5-46T333 783t-37.5-25.5T250 748t-45.5 9.5T167 783t-25.5 38-9.5 46 9.5 45.5T167 950t37.5 25.5T250 985t45.5-9 37.5-25 25.5-37.5T368 867zm-49 0q0 29-20 48.5T250 935t-49-19.5-20-48.5 20-49 49-20 49 20 20 49z"/><glyph glyph-name="ring.lc" horiz-adv-x="526" d="M370 687q0-24-9.5-46T335 603t-37.5-25.5T252 568t-45.5 9.5T169 603t-25.5 38-9.5 46 9.5 45.5T169 770t37.5 25.5T252 805t45.5-9 37.5-25 25.5-37.5T370 687zm-49 0q0 29-20 48.5T252 755t-49-19.5-20-48.5 20-49 49-20 49 20 20 49z"/><glyph glyph-name="circumflex.uc" horiz-adv-x="650" d="M415 781l-90 104-90-104h-69l125 153h68l125-153h-69z"/><glyph glyph-name="undercommaaccent" horiz-adv-x="264" d="M31-216l71 149h66l-59-149H31z"/><glyph glyph-name="dieresis.lc" horiz-adv-x="530" d="M335 602v89h72v-89h-72zm-212 0v89h72v-89h-72z"/><glyph glyph-name="commaturn" horiz-adv-x="264" d="M128 594H62l88 153h86z"/><glyph glyph-name="breve.lc" d="M415 747q-12-139-163-139-155 0-167 139h58q5-39 34-60.5t75-21.5 74.5 21.5T360 747h55z"/><glyph glyph-name="hungarumlaut.lc" d="M176 594h-66l89 153h85zm162 0h-65l89 153h85z"/><glyph glyph-name="tilde.lc" horiz-adv-x="530" d="M422 659q-34-34-56-42.5t-39-8.5q-21 0-37 6t-34 17q-14 8-27.5 14.5T200 652q-12 0-24.5-5T141 620l-37 36q17 17 30.5 27t24.5 15.5 21 7 19 1.5q22 0 37-6.5t34-17.5q16-10 28.5-15t27.5-5q11 0 24 5t35 27z"/><glyph glyph-name="caron.lc" horiz-adv-x="459" d="M270 594h-68L77 747h69l90-105 90 105h69z"/><glyph glyph-name="dotaccent.lc" d="M210 639v74h80v-74h-80z"/><glyph glyph-name="macron.lc" d="M99 602v57h302v-57H99z"/><glyph glyph-name="brevecyr" horiz-adv-x="447" d="M136 709q8-32 27-53.5t61-21.5q41 0 60.5 21.5T312 709l55-13q-12-60-48.5-89T224 578t-94.5 29T80 696z"/><glyph glyph-name="acute.uc" horiz-adv-x="650" d="M342 781h-66l88 153h86z"/><glyph glyph-name="circumflex.lc" horiz-adv-x="530" d="M355 594l-90 104-90-104h-69l125 153h68l125-153h-69z"/><glyph glyph-name="grave.lc" horiz-adv-x="530" d="M238 594L130 747h86l88-153h-66z"/></font>
</defs>
</svg>
